<?xml version="1.0" encoding="UTF-8" standalone="no"?>
<!-- Created with Inkscape (http://www.inkscape.org/) -->

<svg
   width="210mm"
   height="297mm"
   viewBox="0 0 210 297"
   version="1.1"
   id="svg5"
   xml:space="preserve"
   inkscape:export-filename="encript.png"
   inkscape:export-xdpi="96"
   inkscape:export-ydpi="96"
   inkscape:version="1.2.2 (732a01da63, 2022-12-09, custom)"
   sodipodi:docname="llave.svg"
   xmlns:inkscape="http://www.inkscape.org/namespaces/inkscape"
   xmlns:sodipodi="http://sodipodi.sourceforge.net/DTD/sodipodi-0.dtd"
   xmlns="http://www.w3.org/2000/svg"
   xmlns:svg="http://www.w3.org/2000/svg"><sodipodi:namedview
     id="namedview7"
     pagecolor="#ffffff"
     bordercolor="#999999"
     borderopacity="1"
     inkscape:showpageshadow="0"
     inkscape:pageopacity="0"
     inkscape:pagecheckerboard="0"
     inkscape:deskcolor="#d1d1d1"
     inkscape:document-units="mm"
     showgrid="false"
     inkscape:zoom="0.9585578"
     inkscape:cx="405.81799"
     inkscape:cy="643.1537"
     inkscape:window-width="1294"
     inkscape:window-height="704"
     inkscape:window-x="72"
     inkscape:window-y="27"
     inkscape:window-maximized="1"
     inkscape:current-layer="svg5" /><defs
     id="defs2" /><path
     style="display:none;fill:none;stroke:#000000;stroke-width:0.264583px;stroke-linecap:butt;stroke-linejoin:miter;stroke-opacity:1"
     d="m 160.11485,232.6408 4.97067,-4.97067 0.44143,-0.11505 0.56535,-0.0561 0.65292,0.31083 0.39627,0.10437 2.20475,-2.1792 1.07268,-0.52966 1.37034,0.003 1.50604,0.28968 1.34191,1.04806 0.93303,1.55599 0.17015,1.68165 -0.41002,1.22108 -2.3915,2.55307 0.16037,0.58566 0.33414,0.46341 -0.0716,1.12307 -5.27598,5.15558 -1.70339,0.0477 -6.44547,-6.64453 -0.15537,-0.89529 z"
     id="path343"
     sodipodi:nodetypes="ccccccccccccccccccccccc"
     inkscape:label="trazo_candado_exterior" /><path
     style="display:none;fill:none;stroke:#000000;stroke-width:0.264583px;stroke-linecap:butt;stroke-linejoin:miter;stroke-opacity:1"
     d="m 167.93741,228.98229 3.93951,3.89946 1.99781,-2.1942 0.46419,-0.93376 -0.20784,-1.01489 -0.18528,-0.76337 -0.42638,-0.67366 -0.7974,-0.49572 -1.19158,-0.37613 -1.02215,0.267 -0.96705,0.68469 z"
     id="path345"
     inkscape:label="trazo_candado_int" /><path
     style="display:none;fill:none;stroke:#000000;stroke-width:0.264583px;stroke-linecap:butt;stroke-linejoin:miter;stroke-opacity:1"
     d="m 105.41432,142.37726 3.55466,-3.55466 0.46668,-0.0934 0.67179,0.097 15.11871,15.11871 0.18297,0.44493 0.0758,0.58546 -0.21687,0.4314 -3.23789,3.28007 -0.45158,0.13909 -0.50234,-0.11603 -0.60254,-0.0998 -15.1326,-15.1326 z"
     id="path347" /><path
     style="display:none;fill:none;stroke:#000000;stroke-width:0.264583px;stroke-linecap:butt;stroke-linejoin:miter;stroke-opacity:1"
     d="m 124.4222,275.16321 1.35105,1.10424 5.95331,-0.11427 31.28113,-31.3424 6.85705,6.85208 0.98264,0.69616 1.65767,0.24888 1.10641,-0.21587 c 0,0 0.81262,-0.25972 0.84833,-0.18826 0.0357,0.0715 1.04836,-0.92349 1.04836,-0.92349 l 20.93115,-20.84644 0.40856,-1.3909 0.074,-1.86456 -0.23698,-0.94484 -0.64077,-0.69281 -20.36295,-20.21918 -1.18363,-0.74627 -0.68731,-0.17221 -2.46738,0.0226 -1.01835,0.42921 -0.84636,0.39124 -19.81288,19.94992 -0.42387,1.17193 -0.24104,1.00734 -0.0331,1.74353 0.23852,1.29769 0.42802,0.59583 6.23163,6.30158 -10.44369,10.44368 -3.45337,-0.0297 0.0633,0.262 -0.41834,-0.002 0.0356,0.27312 -0.26829,-0.005 0.0401,3.52149 -1.38975,1.28481 -3.5923,-0.068 -2.72202,2.70821 -0.0364,3.60937 -0.25505,-0.0136 -0.01,0.31048 h -5.62614 v 0.29303 h -0.28953 l 0.0252,0.30982 -0.40908,0.0149 v 5.69603 l -2.62891,2.62891 z"
     id="path260"
     inkscape:label="trazo_exterior" /><path
     style="display:inline;fill:#80cde8;fill-opacity:1;stroke:#353434;stroke-width:0.156485;stroke-opacity:1"
     d="m 120.26572,161.57437 c -4.1651,-4.28237 -4.10164,-3.58108 -0.63899,-7.0612 2.68256,-2.6961 2.98044,-2.90081 3.66681,-2.51995 0.66041,0.36647 0.9644,0.23897 2.04754,-0.85875 0.56739,-0.57504 1.26205,-1.16504 1.54367,-1.31111 0.57716,-0.29935 1.64306,-0.34804 2.69243,-0.12299 1.33677,0.28668 2.68699,1.92039 2.8478,3.4457 0.11399,1.08127 -0.18653,1.70103 -1.53241,3.16023 -0.62622,0.67896 -1.13821,1.34802 -1.13774,1.48682 5.3e-4,0.13879 0.0936,0.43023 0.20702,0.64765 0.11339,0.21742 0.2088,0.59005 0.21202,0.82807 0.005,0.38351 -0.29715,0.72679 -2.65672,3.01651 l -2.66257,2.58375 -0.69005,0.002 -0.69006,0.002 -3.20875,-3.29911 z m 10.93241,-7.06301 c 0.32616,-0.61966 0.32956,-0.65837 0.1332,-1.51812 -0.29913,-1.30971 -0.55874,-1.70761 -1.38783,-2.12709 -1.59612,-0.80757 -2.57296,-0.52931 -4.31675,1.22963 l -1.02197,1.03085 2.12606,2.07474 2.12607,2.07474 1.00326,-1.06444 c 0.5518,-0.58544 1.15388,-1.35058 1.33796,-1.70031 z"
     id="path11850"
     inkscape:label="color_candado" /><path
     style="display:inline;fill:#353434;fill-opacity:1;stroke:#353434;stroke-width:0.156485;stroke-opacity:1"
     d="m 82.238328,199.69812 -0.649173,-0.52533 -5.3e-4,-3.17685 -5.29e-4,-3.17685 1.380112,-1.37494 1.380111,-1.37493 v -2.79731 c 0,-2.51881 0.02289,-2.79731 0.230019,-2.79731 0.12651,0 0.191571,-0.0384 0.144584,-0.0854 -0.04699,-0.047 2.64e-4,-0.1712 0.105151,-0.27603 0.149172,-0.14917 0.779684,-0.19058 2.901518,-0.19058 2.165461,0 2.750606,-0.0397 2.908094,-0.19716 0.150397,-0.1504 0.197159,-0.61746 0.197159,-1.96925 v -1.77209 l 1.366941,-1.36181 1.366943,-1.36182 1.800043,0.065 1.800042,0.065 0.697328,-0.70609 0.697328,-0.7061 v -1.62715 c 0,-1.61942 0.107836,-2.02147 0.542184,-2.02147 0.08133,0 0.14787,-0.0621 0.14787,-0.13801 0,-0.0842 0.632775,-0.13801 1.622307,-0.13801 h 1.6223 l 5.3021,-5.30345 5.30211,-5.30344 -3.21727,-3.28775 c -1.76949,-1.80826 -3.31732,-3.44022 -3.43962,-3.62657 -0.33506,-0.51052 -0.30955,-3.11367 0.0413,-4.21555 0.26035,-0.81765 0.38795,-0.95306 10.14382,-10.76487 9.35284,-9.40647 9.9317,-9.96135 10.84622,-10.39686 0.92839,-0.4421 1.02041,-0.45826 2.35872,-0.41403 1.34626,0.0445 1.41752,0.063 2.13918,0.55642 0.41059,0.28072 5.43545,5.1625 11.16637,10.8484 l 10.41984,10.338 0.0471,1.23197 c 0.0327,0.85508 -0.022,1.46967 -0.17876,2.00894 -0.22293,0.76686 -0.3675,0.91725 -11.10866,11.5561 l -10.88279,10.77912 -0.90031,0.22218 c -0.65845,0.16249 -1.15339,0.19507 -1.84239,0.12129 l -0.94207,-0.10089 -3.80286,-3.78064 c -2.09158,-2.07935 -3.86151,-3.78064 -3.9332,-3.78064 -0.0717,0 -7.17936,7.0424 -15.79482,15.64978 l -15.664496,15.64978 -2.835076,0.0913 -2.835077,0.0913 z m 45.687002,-37.21251 2.65672,-2.64335 v -0.6305 c 0,-0.34677 -0.0912,-0.75105 -0.20263,-0.8984 -0.11144,-0.14734 -0.2046,-0.35311 -0.20702,-0.45727 -0.002,-0.10416 0.4952,-0.70121 1.10581,-1.32679 1.38342,-1.41733 1.68335,-2.08707 1.55417,-3.47045 -0.11258,-1.20565 -0.7582,-2.33728 -1.76876,-3.10025 -0.78049,-0.58928 -1.60824,-0.81485 -2.99011,-0.81485 -1.09839,0 -1.73343,0.33984 -3.04254,1.6282 l -1.06571,1.04883 -0.45241,-0.2084 c -0.30316,-0.13965 -0.62764,-0.1779 -0.98356,-0.11593 -0.45733,0.0796 -0.88533,0.44519 -3.0799,2.63069 -1.40183,1.39602 -2.62499,2.72002 -2.71815,2.94223 -0.0932,0.22221 -0.13561,0.63962 -0.0943,0.92758 0.0658,0.45949 0.47894,0.93933 3.37519,3.92059 l 3.30015,3.39703 0.97818,-0.0928 0.9782,-0.0928 z m 16.50193,-8.21803 c 1.90136,-1.87026 2.05571,-2.10329 1.88743,-2.84943 -0.10489,-0.46506 -1.12164,-1.53512 -7.82566,-8.236 -7.54745,-7.54393 -7.71612,-7.70151 -8.24352,-7.70151 -0.50684,0 -0.65038,0.11094 -2.44713,1.89129 -1.89611,1.8788 -1.90871,1.89544 -1.90871,2.51917 v 0.62789 l 7.59029,7.59014 c 6.78699,6.78687 7.6524,7.60576 8.17716,7.73773 0.32278,0.0812 0.71108,0.12006 0.86289,0.0864 0.15181,-0.0336 1.01008,-0.78319 1.90725,-1.6657 z"
     id="path12267"
     inkscape:label="color_llave" /><path
     style="display:inline;fill:#353434;fill-opacity:1;stroke:#353434;stroke-width:0.055326;stroke-opacity:1"
     d="m 126.96359,154.91385 -1.82911,-1.8296 0.70709,-0.70913 c 0.46429,-0.46565 0.88299,-0.83218 1.21942,-1.06749 0.45005,-0.31479 0.5683,-0.37288 0.97265,-0.47786 l 0.46032,-0.11952 0.56594,0.18125 c 1.16215,0.37218 1.58791,0.79035 1.82688,1.79434 0.0681,0.28601 0.14965,0.67372 0.18127,0.86157 l 0.0575,0.34156 -0.20618,0.40881 c -0.17414,0.34527 -0.35089,0.56707 -1.13738,1.42723 -0.51216,0.56014 -0.94427,1.01843 -0.96024,1.01843 -0.016,0 -0.85214,-0.82332 -1.85815,-1.82959 z"
     id="path12269"
     inkscape:label="color_llave" /></svg>
